<svg xmlns="http://www.w3.org/2000/svg" xmlns:xlink="http://www.w3.org/1999/xlink" width="1080" zoomAndPan="magnify" viewBox="0 0 810 809.999993" height="1080" preserveAspectRatio="xMidYMid meet" version="1.0"><defs><clipPath id="825bb38b5c"><path d="M 0 0 L 809.734375 0 L 809.734375 810 L 0 810 Z M 0 0 " clip-rule="nonzero"/></clipPath></defs><g clip-path="url(#825bb38b5c)"><path fill="#eeead6" d="M 610.265625 585.003906 L 610.265625 424.933594 L 776.382812 424.933594 C 768.535156 511.589844 697.738281 580.257812 610.265625 585.003906 Z M 417.167969 784.148438 L 417.167969 618.03125 L 577.238281 618.03125 C 572.496094 705.503906 503.824219 776.300781 417.167969 784.148438 Z M 224.570312 618.03125 L 384.636719 618.03125 L 384.636719 784.148438 C 298.144531 776.300781 229.476562 705.503906 224.570312 618.03125 Z M 25.585938 424.933594 L 191.707031 424.933594 L 191.707031 585.003906 C 104.234375 580.257812 33.4375 511.589844 25.585938 424.933594 Z M 191.707031 232.335938 L 191.707031 392.398438 L 25.585938 392.398438 C 33.4375 305.910156 104.234375 237.242188 191.707031 232.335938 Z M 384.800781 33.351562 L 384.800781 199.46875 L 224.730469 199.46875 C 229.476562 111.996094 298.144531 41.199219 384.800781 33.351562 Z M 577.238281 199.46875 L 417.167969 199.46875 L 417.167969 33.351562 C 503.824219 41.199219 572.496094 111.996094 577.238281 199.46875 Z M 536.039062 392.566406 C 517.5625 387.167969 491.078125 376.050781 466.550781 353.484375 C 437.28125 326.507812 423.710938 295.609375 417.335938 273.863281 L 417.335938 232.171875 L 577.890625 232.171875 L 577.890625 392.726562 L 536.039062 392.726562 Z M 401.3125 495.238281 C 392.644531 477.910156 380.222656 459.433594 362.238281 442.101562 C 347.355469 427.71875 331.664062 417.25 316.949219 409.566406 C 334.933594 400.902344 354.386719 387.988281 372.207031 368.691406 C 385.945312 353.8125 395.753906 338.121094 402.621094 323.238281 C 412.105469 340.898438 425.511719 359.867188 444.480469 377.191406 C 457.71875 389.457031 472.757812 399.921875 488.785156 408.257812 C 471.617188 416.925781 453.304688 429.1875 436.136719 446.847656 C 420.769531 462.871094 409.484375 479.546875 401.3125 495.238281 Z M 224.078125 231.84375 L 384.636719 231.84375 L 384.636719 274.355469 C 380.714844 293.648438 371.390625 321.277344 348.015625 346.785156 C 319.402344 377.851562 285.226562 388.804688 266.421875 392.566406 L 223.914062 392.566406 L 223.914062 231.84375 Z M 224.078125 424.933594 L 266.265625 424.933594 C 285.882812 429.839844 314.164062 440.796875 339.839844 465.484375 C 368.9375 493.445312 380.382812 525.652344 384.800781 543.472656 L 384.800781 585.496094 L 224.238281 585.496094 L 224.238281 424.933594 Z M 577.890625 585.65625 L 417.335938 585.65625 L 417.335938 543.804688 C 422.730469 524.015625 434.335938 495.570312 459.519531 469.894531 C 485.839844 442.917969 515.269531 430.824219 535.871094 425.265625 L 577.730469 425.265625 L 577.730469 585.65625 Z M 776.382812 392.566406 L 610.265625 392.566406 L 610.265625 232.496094 C 697.738281 237.242188 768.535156 305.910156 776.382812 392.566406 Z M 809.734375 408.75 C 809.734375 296.425781 720.792969 204.867188 609.773438 199.960938 C 604.867188 88.941406 513.148438 0 400.984375 0 C 288.820312 0 197.101562 88.941406 192.195312 199.960938 C 81.175781 204.867188 -7.765625 296.425781 -7.765625 408.75 C -7.765625 521.074219 81.175781 612.632812 192.195312 617.539062 C 197.101562 728.558594 288.820312 817.5 400.984375 817.5 C 513.148438 817.5 604.867188 728.558594 609.773438 617.539062 C 720.792969 612.632812 809.734375 520.914062 809.734375 408.75 " fill-opacity="1" fill-rule="nonzero"/></g></svg>